<svg width="24" height="24" viewBox="0 0 24 24" fill="none" xmlns="http://www.w3.org/2000/svg">
<g clip-path="url(#clip0_14_951)">
<path d="M0.666626 11.5C0.666626 5.14873 5.81535 0 12.1666 0V0C18.5179 0 23.6666 5.14873 23.6666 11.5V12.5C23.6666 18.8513 18.5179 24 12.1666 24V24C5.81535 24 0.666626 18.8513 0.666626 12.5V11.5Z" fill="white"/>
<path fill-rule="evenodd" clip-rule="evenodd" d="M0.66687 0H14.4669V11.2H0.66687V0Z" fill="#1A47B8"/>
<path fill-rule="evenodd" clip-rule="evenodd" d="M14.4669 0L14.4669 1.6H32.8669V0H14.4669ZM14.4669 3.2V4.8H32.8669V3.2H14.4669ZM14.4669 6.4V8H32.8669V6.4H14.4669ZM14.4669 9.6L14.4669 11.2H32.8669V9.6H14.4669ZM0.66687 12.8V14.4H32.8669V12.8H0.66687ZM0.66687 16V17.6H32.8669V16H0.66687ZM0.66687 19.2V20.8H32.8669V19.2H0.66687ZM0.66687 22.4V24H32.8669V22.4H0.66687Z" fill="#F93939"/>
<path fill-rule="evenodd" clip-rule="evenodd" d="M2.2001 1.59997V3.19997H3.73343V1.59997H2.2001ZM5.26676 1.59997V3.19997H6.8001V1.59997H5.26676ZM8.33343 1.59997V3.19997H9.86676V1.59997H8.33343ZM11.4001 1.59997V3.19997H12.9334V1.59997H11.4001ZM9.86676 3.19997V4.79997H11.4001V3.19997H9.86676ZM6.8001 3.19997V4.79997H8.33343V3.19997H6.8001ZM3.73343 3.19997V4.79997H5.26676V3.19997H3.73343ZM2.2001 4.79997V6.39997H3.73343V4.79997H2.2001ZM5.26676 4.79997V6.39997H6.8001V4.79997H5.26676ZM8.33343 4.79997V6.39997H9.86676V4.79997H8.33343ZM11.4001 4.79997V6.39997H12.9334V4.79997H11.4001ZM2.2001 7.99997V9.59997H3.73343V7.99997H2.2001ZM5.26676 7.99997V9.59997H6.8001V7.99997H5.26676ZM8.33343 7.99997V9.59997H9.86676V7.99997H8.33343ZM11.4001 7.99997V9.59997H12.9334V7.99997H11.4001ZM9.86676 6.39997V7.99997H11.4001V6.39997H9.86676ZM6.8001 6.39997V7.99997H8.33343V6.39997H6.8001ZM3.73343 6.39997V7.99997H5.26676V6.39997H3.73343Z" fill="white"/>
</g>
<defs>
<clipPath id="clip0_14_951">
<path d="M0.666626 11.5C0.666626 5.14873 5.81535 0 12.1666 0V0C18.5179 0 23.6666 5.14873 23.6666 11.5V12.5C23.6666 18.8513 18.5179 24 12.1666 24V24C5.81535 24 0.666626 18.8513 0.666626 12.5V11.5Z" fill="white"/>
</clipPath>
</defs>
</svg>
