<svg width="160" height="160" viewBox="0 0 160 160" fill="none" xmlns="http://www.w3.org/2000/svg">
<g clip-path="url(#clip0_181_6849)">
<path d="M124.688 120.062C117.781 108.062 104.812 100 90 100H70C55.1875 100 42.2188 108.062 35.3125 120.062C46.3125 132.312 62.25 140 80 140C97.75 140 113.688 132.281 124.688 120.062ZM0 80C0 58.7827 8.42855 38.4344 23.4315 23.4315C38.4344 8.42855 58.7827 0 80 0C101.217 0 121.566 8.42855 136.569 23.4315C151.571 38.4344 160 58.7827 160 80C160 101.217 151.571 121.566 136.569 136.569C121.566 151.571 101.217 160 80 160C58.7827 160 38.4344 151.571 23.4315 136.569C8.42855 121.566 0 101.217 0 80ZM80 85C85.9674 85 91.6903 82.6295 95.9099 78.4099C100.129 74.1903 102.5 68.4674 102.5 62.5C102.5 56.5326 100.129 50.8097 95.9099 46.5901C91.6903 42.3705 85.9674 40 80 40C74.0326 40 68.3097 42.3705 64.0901 46.5901C59.8705 50.8097 57.5 56.5326 57.5 62.5C57.5 68.4674 59.8705 74.1903 64.0901 78.4099C68.3097 82.6295 74.0326 85 80 85Z" fill="#D1D5DB"/>
</g>
<defs>
<clipPath id="clip0_181_6849">
<rect width="160" height="160" fill="white"/>
</clipPath>
</defs>
</svg>
