<svg width="25" height="24" viewBox="0 0 25 24" fill="none" xmlns="http://www.w3.org/2000/svg">
<path d="M22.3838 18.2391L19.2723 3.44531C19.232 3.25185 19.1539 3.06824 19.0425 2.90505C18.9311 2.74185 18.7885 2.60227 18.623 2.49434C18.4575 2.3864 18.2723 2.31223 18.078 2.27609C17.8838 2.23995 17.6843 2.24255 17.491 2.28375L13.1026 3.22687C12.7144 3.31187 12.3755 3.54668 12.1595 3.88026C11.9436 4.21383 11.8681 4.61917 11.9494 5.00812L15.061 19.8019C15.1303 20.1394 15.3138 20.4427 15.5805 20.6609C15.8471 20.8791 16.1808 20.9989 16.5254 21C16.6319 20.9999 16.7381 20.9885 16.8423 20.9662L21.2307 20.0231C21.6193 19.9379 21.9586 19.7026 22.1746 19.3685C22.3905 19.0343 22.4657 18.6284 22.3838 18.2391ZM13.4166 4.70156C13.4166 4.69593 13.4166 4.69312 13.4166 4.69312L17.8041 3.75562L18.1163 5.24343L13.7288 6.1875L13.4166 4.70156ZM14.0373 7.65187L18.4266 6.70968L18.7398 8.20031L14.3541 9.14343L14.0373 7.65187ZM14.6597 10.6116L19.0491 9.66843L20.296 15.5972L15.9066 16.5403L14.6597 10.6116ZM20.9166 18.5569L16.5291 19.4944L16.2169 18.0066L20.6044 17.0625L20.9166 18.5484C20.9166 18.5541 20.9166 18.5569 20.9166 18.5569ZM10.4166 3H5.91663C5.5188 3 5.13727 3.15803 4.85597 3.43934C4.57466 3.72064 4.41663 4.10217 4.41663 4.5V19.5C4.41663 19.8978 4.57466 20.2794 4.85597 20.5607C5.13727 20.842 5.5188 21 5.91663 21H10.4166C10.8145 21 11.196 20.842 11.4773 20.5607C11.7586 20.2794 11.9166 19.8978 11.9166 19.5V4.5C11.9166 4.10217 11.7586 3.72064 11.4773 3.43934C11.196 3.15803 10.8145 3 10.4166 3ZM5.91663 4.5H10.4166V6H5.91663V4.5ZM5.91663 7.5H10.4166V16.5H5.91663V7.5ZM10.4166 19.5H5.91663V18H10.4166V19.5Z" fill="#111827"/>
</svg>
