<svg width="24" height="24" viewBox="0 0 24 24" fill="none" xmlns="http://www.w3.org/2000/svg">
<path d="M20.0306 15.5307C19.9609 15.6005 19.8782 15.6558 19.7871 15.6935C19.6961 15.7313 19.5985 15.7507 19.4999 15.7507C19.4014 15.7507 19.3038 15.7313 19.2127 15.6935C19.1217 15.6558 19.039 15.6005 18.9693 15.5307L11.9999 8.56041L5.03055 15.5307C4.88982 15.6715 4.69895 15.7505 4.49993 15.7505C4.30091 15.7505 4.11003 15.6715 3.9693 15.5307C3.82857 15.39 3.74951 15.1991 3.74951 15.0001C3.74951 14.8011 3.82857 14.6102 3.9693 14.4695L11.4693 6.96948C11.539 6.89974 11.6217 6.84443 11.7127 6.80668C11.8038 6.76894 11.9014 6.74951 11.9999 6.74951C12.0985 6.74951 12.1961 6.76894 12.2871 6.80668C12.3782 6.84443 12.4609 6.89974 12.5306 6.96948L20.0306 14.4695C20.1003 14.5391 20.1556 14.6218 20.1933 14.7129C20.2311 14.8039 20.2505 14.9015 20.2505 15.0001C20.2505 15.0987 20.2311 15.1963 20.1933 15.2873C20.1556 15.3784 20.1003 15.4611 20.0306 15.5307Z" fill="#343330"/>
</svg>
