<svg width="25" height="24" viewBox="0 0 25 24" fill="none" xmlns="http://www.w3.org/2000/svg">
<path d="M13.25 7.50003V11.5753L16.6363 13.6069C16.8068 13.7093 16.9297 13.8753 16.9779 14.0684C17.0261 14.2614 16.9956 14.4657 16.8931 14.6363C16.7907 14.8068 16.6247 14.9297 16.4316 14.9779C16.2386 15.0261 16.0343 14.9956 15.8638 14.8932L12.1138 12.6432C12.0028 12.5765 11.9109 12.4822 11.8472 12.3695C11.7834 12.2568 11.75 12.1295 11.75 12V7.50003C11.75 7.30112 11.829 7.11035 11.9697 6.9697C12.1103 6.82905 12.3011 6.75003 12.5 6.75003C12.6989 6.75003 12.8897 6.82905 13.0303 6.9697C13.171 7.11035 13.25 7.30112 13.25 7.50003ZM12.5 3.00003C11.3169 2.99708 10.1449 3.22881 9.05193 3.6818C7.95895 4.1348 6.96667 4.80006 6.1325 5.63909C5.45094 6.32909 4.84531 6.99284 4.25 7.68753V6.00003C4.25 5.80112 4.17098 5.61035 4.03033 5.4697C3.88968 5.32905 3.69891 5.25003 3.5 5.25003C3.30109 5.25003 3.11032 5.32905 2.96967 5.4697C2.82902 5.61035 2.75 5.80112 2.75 6.00003V9.75003C2.75 9.94894 2.82902 10.1397 2.96967 10.2804C3.11032 10.421 3.30109 10.5 3.5 10.5H7.25C7.44891 10.5 7.63968 10.421 7.78033 10.2804C7.92098 10.1397 8 9.94894 8 9.75003C8 9.55112 7.92098 9.36035 7.78033 9.2197C7.63968 9.07905 7.44891 9.00003 7.25 9.00003H5.09375C5.76406 8.21065 6.43156 7.46722 7.19281 6.69659C8.23518 5.65423 9.5616 4.94216 11.0063 4.64935C12.4511 4.35654 13.9501 4.49598 15.316 5.05023C16.682 5.60449 17.8543 6.54899 18.6866 7.76572C19.5188 8.98245 19.974 10.4175 19.9953 11.8914C20.0166 13.3654 19.6031 14.813 18.8064 16.0532C18.0098 17.2935 16.8652 18.2716 15.5159 18.8651C14.1665 19.4586 12.6722 19.6414 11.2196 19.3905C9.76698 19.1396 8.42052 18.4662 7.34844 17.4544C7.27679 17.3867 7.1925 17.3338 7.10039 17.2986C7.00828 17.2635 6.91015 17.2468 6.8116 17.2496C6.71305 17.2524 6.61602 17.2746 6.52604 17.3149C6.43606 17.3551 6.3549 17.4128 6.28719 17.4844C6.21947 17.5561 6.16654 17.6403 6.1314 17.7325C6.09626 17.8246 6.07961 17.9227 6.0824 18.0212C6.08518 18.1198 6.10735 18.2168 6.14764 18.3068C6.18792 18.3968 6.24554 18.4779 6.31719 18.5457C7.38542 19.5537 8.68414 20.285 10.1 20.6757C11.5159 21.0665 13.0058 21.1047 14.4399 20.7872C15.8739 20.4696 17.2085 19.806 18.327 18.854C19.4456 17.9021 20.3142 16.6909 20.857 15.3261C21.3998 13.9613 21.6003 12.4844 21.4411 11.0243C21.2818 9.56414 20.7677 8.16517 19.9434 6.94947C19.1192 5.73376 18.0099 4.73825 16.7125 4.04982C15.415 3.3614 13.9688 3.00098 12.5 3.00003Z" fill="#111827"/>
</svg>
