<svg width="24" height="24" viewBox="0 0 24 24" fill="none" xmlns="http://www.w3.org/2000/svg">
<path d="M12.75 7.49985V11.5752L16.1363 13.6067C16.3068 13.7092 16.4297 13.8752 16.4779 14.0682C16.5261 14.2613 16.4956 14.4655 16.3931 14.6361C16.2907 14.8067 16.1247 14.9296 15.9316 14.9777C15.7386 15.0259 15.5343 14.9954 15.3638 14.893L11.6138 12.643C11.5028 12.5763 11.4109 12.482 11.3472 12.3693C11.2835 12.2566 11.25 12.1293 11.25 11.9998V7.49985C11.25 7.30094 11.329 7.11017 11.4697 6.96952C11.6103 6.82887 11.8011 6.74985 12 6.74985C12.1989 6.74985 12.3897 6.82887 12.5303 6.96952C12.671 7.11017 12.75 7.30094 12.75 7.49985ZM21 5.24985C20.8011 5.24985 20.6103 5.32887 20.4697 5.46952C20.329 5.61017 20.25 5.80094 20.25 5.99985V7.68735C19.6547 6.99735 19.0472 6.33266 18.3638 5.64079C17.113 4.38989 15.5213 3.53531 13.7877 3.18384C12.054 2.83237 10.2552 2.99958 8.616 3.6646C6.97682 4.32961 5.56996 5.46293 4.5712 6.92295C3.57245 8.38297 3.02609 10.1049 3.0004 11.8737C2.97471 13.6425 3.47083 15.3796 4.42676 16.868C5.38269 18.3564 6.75604 19.5301 8.37522 20.2424C9.99439 20.9548 11.7876 21.1741 13.5307 20.8732C15.2739 20.5722 16.8897 19.7642 18.1763 18.5502C18.2479 18.4824 18.3055 18.4013 18.3458 18.3113C18.3861 18.2213 18.4083 18.1243 18.4111 18.0258C18.4138 17.9272 18.3972 17.8291 18.362 17.737C18.3269 17.6449 18.274 17.5606 18.2063 17.4889C18.1385 17.4173 18.0574 17.3596 17.9674 17.3194C17.8774 17.2791 17.7804 17.2569 17.6819 17.2541C17.5833 17.2513 17.4852 17.268 17.3931 17.3031C17.301 17.3383 17.2167 17.3912 17.145 17.4589C16.0726 18.4696 14.7261 19.142 13.2738 19.392C11.8215 19.6421 10.3277 19.4587 8.97902 18.8649C7.6303 18.2711 6.4864 17.2931 5.69018 16.053C4.89396 14.813 4.48069 13.3659 4.50199 11.8924C4.52329 10.4189 4.97822 8.98427 5.80995 7.76776C6.64169 6.55125 7.81338 5.60673 9.1787 5.05214C10.544 4.49755 12.0425 4.35747 13.4869 4.6494C14.9314 4.94133 16.2578 5.65232 17.3006 6.6936C18.0638 7.4661 18.7322 8.21047 19.4063 8.99985H17.25C17.0511 8.99985 16.8603 9.07887 16.7197 9.21952C16.579 9.36017 16.5 9.55094 16.5 9.74985C16.5 9.94876 16.579 10.1395 16.7197 10.2802C16.8603 10.4208 17.0511 10.4998 17.25 10.4998H21C21.1989 10.4998 21.3897 10.4208 21.5303 10.2802C21.671 10.1395 21.75 9.94876 21.75 9.74985V5.99985C21.75 5.80094 21.671 5.61017 21.5303 5.46952C21.3897 5.32887 21.1989 5.24985 21 5.24985Z" fill="#111827"/>
</svg>
