<svg width="25" height="24" viewBox="0 0 25 24" fill="none" xmlns="http://www.w3.org/2000/svg">
<path d="M21.6666 4.5H3.66663C3.46771 4.5 3.27695 4.57902 3.1363 4.71967C2.99564 4.86032 2.91663 5.05109 2.91663 5.25V18C2.91663 18.3978 3.07466 18.7794 3.35597 19.0607C3.63727 19.342 4.0188 19.5 4.41663 19.5H20.9166C21.3145 19.5 21.696 19.342 21.9773 19.0607C22.2586 18.7794 22.4166 18.3978 22.4166 18V5.25C22.4166 5.05109 22.3376 4.86032 22.197 4.71967C22.0563 4.57902 21.8655 4.5 21.6666 4.5ZM19.7382 6L12.6666 12.4828L5.59506 6H19.7382ZM20.9166 18H4.41663V6.95531L12.1594 14.0531C12.2978 14.1801 12.4788 14.2506 12.6666 14.2506C12.8545 14.2506 13.0354 14.1801 13.1738 14.0531L20.9166 6.95531V18Z" fill="#343330"/>
</svg>
