<svg width="25" height="24" viewBox="0 0 25 24" fill="none" xmlns="http://www.w3.org/2000/svg">
<path fill-rule="evenodd" clip-rule="evenodd" d="M12.6666 8.25C10.5956 8.25 8.91663 9.92893 8.91663 12C8.91663 14.0711 10.5956 15.75 12.6666 15.75C14.7377 15.75 16.4166 14.0711 16.4166 12C16.4166 9.92893 14.7377 8.25 12.6666 8.25ZM10.4166 12C10.4166 10.7574 11.424 9.75 12.6666 9.75C13.9093 9.75 14.9166 10.7574 14.9166 12C14.9166 13.2426 13.9093 14.25 12.6666 14.25C11.424 14.25 10.4166 13.2426 10.4166 12Z" fill="#1C274C"/>
<path fill-rule="evenodd" clip-rule="evenodd" d="M12.6666 3.25C8.15249 3.25 5.11192 5.9542 3.34719 8.24686L3.31537 8.2882C2.91626 8.80653 2.54869 9.28392 2.29931 9.8484C2.03227 10.4529 1.91663 11.1117 1.91663 12C1.91663 12.8883 2.03227 13.5471 2.29931 14.1516C2.54869 14.7161 2.91627 15.1935 3.31537 15.7118L3.34719 15.7531C5.11192 18.0458 8.15249 20.75 12.6666 20.75C17.1808 20.75 20.2213 18.0458 21.9861 15.7531L22.0179 15.7118C22.417 15.1935 22.7846 14.7161 23.0339 14.1516C23.301 13.5471 23.4166 12.8883 23.4166 12C23.4166 11.1117 23.301 10.4529 23.0339 9.8484C22.7846 9.28391 22.417 8.80652 22.0179 8.28818L21.9861 8.24686C20.2213 5.9542 17.1808 3.25 12.6666 3.25ZM4.53584 9.1618C6.16526 7.04492 8.81699 4.75 12.6666 4.75C16.5163 4.75 19.168 7.04492 20.7974 9.1618C21.236 9.73159 21.4929 10.0721 21.6619 10.4545C21.8198 10.812 21.9166 11.2489 21.9166 12C21.9166 12.7511 21.8198 13.188 21.6619 13.5455C21.4929 13.9279 21.236 14.2684 20.7974 14.8382C19.168 16.9551 16.5163 19.25 12.6666 19.25C8.81699 19.25 6.16526 16.9551 4.53584 14.8382C4.09726 14.2684 3.84036 13.9279 3.67139 13.5455C3.51346 13.188 3.41663 12.7511 3.41663 12C3.41663 11.2489 3.51346 10.812 3.67139 10.4545C3.84036 10.0721 4.09726 9.73159 4.53584 9.1618Z" fill="#1C274C"/>
</svg>
