<svg width="25" height="24" viewBox="0 0 25 24" fill="none" xmlns="http://www.w3.org/2000/svg">
<path fill-rule="evenodd" clip-rule="evenodd" d="M22.9621 6.31065C23.3428 6.47382 23.5192 6.91473 23.356 7.29545L22.6667 7.00001C23.356 7.29545 23.3561 7.29527 23.356 7.29545L23.3553 7.29713L23.3542 7.29961L23.351 7.30697L23.3404 7.33105C23.3314 7.35118 23.3186 7.3794 23.302 7.41508C23.2687 7.48643 23.22 7.58776 23.1555 7.71416C23.0267 7.96681 22.8343 8.32069 22.5752 8.73647C22.1496 9.41951 21.5391 10.2777 20.7287 11.1302L21.697 12.0985C21.9899 12.3914 21.9899 12.8663 21.697 13.1592C21.4041 13.4521 20.9292 13.4521 20.6363 13.1592L19.6358 12.1586C18.9761 12.7113 18.2195 13.23 17.3618 13.6562L18.2953 15.091C18.5212 15.4382 18.4229 15.9027 18.0757 16.1286C17.7285 16.3546 17.2639 16.2562 17.038 15.909L15.9489 14.2352C15.1695 14.4897 14.3257 14.6626 13.4167 14.7246V16.5C13.4167 16.9142 13.0809 17.25 12.6667 17.25C12.2525 17.25 11.9167 16.9142 11.9167 16.5V14.7246C11.0356 14.6645 10.2158 14.5002 9.45657 14.2584L8.3825 15.9091C8.15659 16.2563 7.69201 16.3546 7.34482 16.1287C6.99763 15.9028 6.89932 15.4382 7.12522 15.091L8.03764 13.6888C7.17325 13.2667 6.41056 12.7502 5.74517 12.1983L4.78419 13.1592C4.4913 13.4521 4.01642 13.4521 3.72353 13.1592C3.43064 12.8664 3.43064 12.3915 3.72353 12.0986L4.64729 11.1748C3.82274 10.3151 3.202 9.44656 2.76952 8.75468C2.50659 8.33404 2.31134 7.97566 2.18063 7.7197C2.11523 7.59164 2.06585 7.48895 2.03212 7.41665C2.01525 7.38048 2.00228 7.35189 1.99316 7.33149L1.98237 7.3071L1.97913 7.29966L1.97804 7.29714L1.97763 7.29619C1.97756 7.29602 1.97731 7.29545 2.66667 7.00001L1.97763 7.29619C1.81447 6.91547 1.99051 6.47382 2.37123 6.31065C2.75164 6.14762 3.19214 6.32356 3.35563 6.70363C3.35568 6.70376 3.35557 6.7035 3.35563 6.70363L3.35658 6.70582L3.36266 6.71953C3.36855 6.73273 3.37814 6.75392 3.39147 6.78249C3.41814 6.83965 3.45971 6.92626 3.51651 7.03748C3.6302 7.2601 3.80436 7.58028 4.04147 7.95961C4.51708 8.72048 5.23832 9.7071 6.22235 10.6216C7.08826 11.4263 8.14934 12.1676 9.4184 12.6558C10.3729 13.023 11.4521 13.25 12.6667 13.25C13.9084 13.25 15.0088 13.0128 15.9792 12.6308C17.2405 12.1343 18.2944 11.3883 19.1534 10.582C20.1229 9.67198 20.8336 8.69517 21.3021 7.94321C21.5357 7.56832 21.7073 7.25228 21.8193 7.03268C21.8752 6.92296 21.9162 6.83758 21.9424 6.78125C21.9556 6.7531 21.965 6.73224 21.9708 6.71925L21.9768 6.70577L21.9773 6.70457C21.9774 6.70447 21.9773 6.70467 21.9773 6.70457M22.9621 6.31065C22.5815 6.14753 22.1406 6.32405 21.9773 6.70457ZM3.35563 6.70363C3.35568 6.70376 3.35557 6.7035 3.35563 6.70363Z" fill="#1C274C"/>
</svg>
