<svg width="56" height="56" viewBox="0 0 56 56" fill="none" xmlns="http://www.w3.org/2000/svg">
<g clip-path="url(#clip0_16_1510)">
<g clip-path="url(#clip1_16_1510)">
<path d="M49 0H7C3.1395 0 0 3.1395 0 7V49C0 52.8605 3.1395 56 7 56H49C52.8605 56 56 52.8605 56 49V7C56 3.1395 52.8605 0 49 0Z" fill="#1976D2"/>
<path fill-rule="evenodd" clip-rule="evenodd" d="M47.25 28H38.5V21C38.5 19.068 40.068 19.25 42 19.25H45.5V10.5H38.5C35.7152 10.5 33.0445 11.6062 31.0754 13.5754C29.1062 15.5445 28 18.2152 28 21V28H21V36.75H28V56H38.5V36.75H43.75L47.25 28Z" fill="#FAFAFA"/>
</g>
</g>
<defs>
<clipPath id="clip0_16_1510">
<path d="M0 12C0 5.37258 5.37258 0 12 0H44C50.6274 0 56 5.37258 56 12V44C56 50.6274 50.6274 56 44 56H12C5.37258 56 0 50.6274 0 44V12Z" fill="white"/>
</clipPath>
<clipPath id="clip1_16_1510">
<rect width="56" height="56" fill="white"/>
</clipPath>
</defs>
</svg>
