<svg width="25" height="25" viewBox="0 0 25 25" fill="none" xmlns="http://www.w3.org/2000/svg">
<path d="M22.6509 11.2831L18.4228 14.9731L19.6894 20.4668C19.7564 20.754 19.7373 21.0546 19.6344 21.331C19.5315 21.6074 19.3495 21.8473 19.111 22.0208C18.8725 22.1942 18.5881 22.2935 18.2935 22.3063C17.9988 22.319 17.707 22.2447 17.4544 22.0924L12.6628 19.1862L7.88157 22.0924C7.62898 22.2447 7.33712 22.319 7.04249 22.3063C6.74785 22.2935 6.46351 22.1942 6.22501 22.0208C5.98651 21.8473 5.80444 21.6074 5.70156 21.331C5.59868 21.0546 5.57955 20.754 5.64657 20.4668L6.91126 14.9787L2.6822 11.2831C2.45852 11.0901 2.29678 10.8355 2.21725 10.551C2.13773 10.2665 2.14396 9.96492 2.23517 9.68397C2.32638 9.40303 2.49851 9.15527 2.72997 8.97176C2.96143 8.78825 3.24192 8.67717 3.53626 8.65243L9.11064 8.16962L11.2866 2.97962C11.4002 2.70729 11.5919 2.47467 11.8374 2.31105C12.083 2.14743 12.3715 2.06012 12.6666 2.06012C12.9617 2.06012 13.2501 2.14743 13.4957 2.31105C13.7413 2.47467 13.9329 2.70729 14.0466 2.97962L16.2291 8.16962L21.8016 8.65243C22.0959 8.67717 22.3764 8.78825 22.6079 8.97176C22.8393 9.15527 23.0115 9.40303 23.1027 9.68397C23.1939 9.96492 23.2001 10.2665 23.1206 10.551C23.0411 10.8355 22.8793 11.0901 22.6556 11.2831H22.6509Z" fill="#111827"/>
</svg>
