<svg width="25" height="24" viewBox="0 0 25 24" fill="none" xmlns="http://www.w3.org/2000/svg">
<path d="M19.4166 12C19.4166 12.1989 19.3376 12.3897 19.197 12.5303C19.0563 12.671 18.8655 12.75 18.6666 12.75H6.66663C6.46771 12.75 6.27695 12.671 6.1363 12.5303C5.99564 12.3897 5.91663 12.1989 5.91663 12C5.91663 11.8011 5.99564 11.6103 6.1363 11.4697C6.27695 11.329 6.46771 11.25 6.66663 11.25H18.6666C18.8655 11.25 19.0563 11.329 19.197 11.4697C19.3376 11.6103 19.4166 11.8011 19.4166 12ZM22.4166 6.75H2.91663C2.71771 6.75 2.52695 6.82902 2.3863 6.96967C2.24564 7.11032 2.16663 7.30109 2.16663 7.5C2.16663 7.69891 2.24564 7.88968 2.3863 8.03033C2.52695 8.17098 2.71771 8.25 2.91663 8.25H22.4166C22.6155 8.25 22.8063 8.17098 22.947 8.03033C23.0876 7.88968 23.1666 7.69891 23.1666 7.5C23.1666 7.30109 23.0876 7.11032 22.947 6.96967C22.8063 6.82902 22.6155 6.75 22.4166 6.75ZM14.9166 15.75H10.4166C10.2177 15.75 10.0269 15.829 9.8863 15.9697C9.74564 16.1103 9.66663 16.3011 9.66663 16.5C9.66663 16.6989 9.74564 16.8897 9.8863 17.0303C10.0269 17.171 10.2177 17.25 10.4166 17.25H14.9166C15.1155 17.25 15.3063 17.171 15.447 17.0303C15.5876 16.8897 15.6666 16.6989 15.6666 16.5C15.6666 16.3011 15.5876 16.1103 15.447 15.9697C15.3063 15.829 15.1155 15.75 14.9166 15.75Z" fill="#111827"/>
</svg>
