<svg width="20" height="20" viewBox="0 0 20 20" fill="none" xmlns="http://www.w3.org/2000/svg">
<path d="M10 1.875C8.39303 1.875 6.82214 2.35152 5.486 3.24431C4.14985 4.1371 3.10844 5.40605 2.49348 6.8907C1.87852 8.37535 1.71762 10.009 2.03112 11.5851C2.34463 13.1612 3.11846 14.6089 4.25476 15.7452C5.39106 16.8815 6.8388 17.6554 8.4149 17.9689C9.99099 18.2824 11.6247 18.1215 13.1093 17.5065C14.594 16.8916 15.8629 15.8502 16.7557 14.514C17.6485 13.1779 18.125 11.607 18.125 10C18.1227 7.84581 17.266 5.78051 15.7427 4.25727C14.2195 2.73403 12.1542 1.87727 10 1.875ZM7.93985 13.125H12.0602C11.6406 14.5578 10.9375 15.8492 10 16.8664C9.0625 15.8492 8.35938 14.5578 7.93985 13.125ZM7.65625 11.875C7.44896 10.6336 7.44896 9.36641 7.65625 8.125H12.3438C12.551 9.36641 12.551 10.6336 12.3438 11.875H7.65625ZM3.125 10C3.12446 9.36597 3.21202 8.73493 3.38516 8.125H6.38985C6.20339 9.36805 6.20339 10.632 6.38985 11.875H3.38516C3.21202 11.2651 3.12446 10.634 3.125 10ZM12.0602 6.875H7.93985C8.35938 5.44219 9.0625 4.15078 10 3.13359C10.9375 4.15078 11.6406 5.44219 12.0602 6.875ZM13.6102 8.125H16.6148C16.9617 9.35093 16.9617 10.6491 16.6148 11.875H13.6102C13.7966 10.632 13.7966 9.36805 13.6102 8.125ZM16.1227 6.875H13.3547C13.0357 5.61993 12.5001 4.43019 11.7719 3.35938C12.7022 3.60939 13.57 4.05135 14.3193 4.65682C15.0686 5.26229 15.6829 6.01788 16.1227 6.875ZM8.22813 3.35938C7.49992 4.43019 6.96427 5.61993 6.64532 6.875H3.87735C4.31713 6.01788 4.93143 5.26229 5.68074 4.65682C6.43005 4.05135 7.29778 3.60939 8.22813 3.35938ZM3.87735 13.125H6.64532C6.96427 14.3801 7.49992 15.5698 8.22813 16.6406C7.29778 16.3906 6.43005 15.9487 5.68074 15.3432C4.93143 14.7377 4.31713 13.9821 3.87735 13.125ZM11.7719 16.6406C12.5001 15.5698 13.0357 14.3801 13.3547 13.125H16.1227C15.6829 13.9821 15.0686 14.7377 14.3193 15.3432C13.57 15.9487 12.7022 16.3906 11.7719 16.6406Z" fill="#F68657"/>
</svg>
