<svg width="56" height="56" viewBox="0 0 56 56" fill="none" xmlns="http://www.w3.org/2000/svg">
<path d="M0.5 12C0.5 5.64873 5.64873 0.5 12 0.5H44C50.3513 0.5 55.5 5.64873 55.5 12V44C55.5 50.3513 50.3513 55.5 44 55.5H12C5.64873 55.5 0.5 50.3513 0.5 44V12Z" fill="white"/>
<path d="M0.5 12C0.5 5.64873 5.64873 0.5 12 0.5H44C50.3513 0.5 55.5 5.64873 55.5 12V44C55.5 50.3513 50.3513 55.5 44 55.5H12C5.64873 55.5 0.5 50.3513 0.5 44V12Z" stroke="#E5E7EB"/>
<g clip-path="url(#clip0_16_1511)">
<path d="M45.9811 28.3447C45.9811 26.8354 45.8586 25.734 45.5936 24.5918H28.3586V31.4041H38.4751C38.2713 33.097 37.1699 35.6466 34.7223 37.3598L34.6879 37.5879L40.1373 41.8094L40.5148 41.8471C43.9822 38.6448 45.9811 33.9333 45.9811 28.3447Z" fill="#4285F4"/>
<path d="M28.3587 46.2935C33.3149 46.2935 37.4757 44.6617 40.5149 41.8471L34.7223 37.3598C33.1722 38.4408 31.0917 39.1955 28.3587 39.1955C23.5044 39.1955 19.3843 35.9934 17.9157 31.5674L17.7004 31.5857L12.0341 35.9709L11.96 36.1769C14.9786 42.1734 21.1791 46.2935 28.3587 46.2935Z" fill="#34A853"/>
<path d="M17.9157 31.5675C17.5281 30.4253 17.3039 29.2014 17.3039 27.9369C17.3039 26.6723 17.5281 25.4485 17.8953 24.3063L17.885 24.0631L12.1477 19.6074L11.96 19.6967C10.7158 22.1851 10.002 24.9794 10.002 27.9369C10.002 30.8944 10.7158 33.6886 11.96 36.177L17.9157 31.5675Z" fill="#FBBC05"/>
<path d="M28.3587 16.678C31.8056 16.678 34.1307 18.1669 35.4565 19.4111L40.6372 14.3528C37.4555 11.3954 33.3149 9.58008 28.3587 9.58008C21.1791 9.58008 14.9786 13.7001 11.96 19.6966L17.8953 24.3062C19.3843 19.8802 23.5044 16.678 28.3587 16.678Z" fill="#EB4335"/>
</g>
<defs>
<clipPath id="clip0_16_1511">
<rect width="36" height="36.84" fill="white" transform="translate(10 9.58008)"/>
</clipPath>
</defs>
</svg>
