<svg width="25" height="26" viewBox="0 0 25 26" fill="none" xmlns="http://www.w3.org/2000/svg">
<g clip-path="url(#clip0_9_1123)">
<path d="M24.4873 13.23C24.4873 12.2237 24.4057 11.4895 24.229 10.728H12.739V15.2696H19.4833C19.3474 16.3982 18.6132 18.0979 16.9814 19.24L16.9585 19.3921L20.5915 22.2064L20.8431 22.2316C23.1547 20.0967 24.4873 16.9557 24.4873 13.23Z" fill="#4285F4"/>
<path d="M12.739 25.1958C16.0431 25.1958 18.817 24.108 20.8431 22.2316L16.9814 19.2401C15.948 19.9607 14.561 20.4638 12.739 20.4638C9.50279 20.4638 6.7561 18.3291 5.77698 15.3784L5.63347 15.3906L1.85592 18.3141L1.80652 18.4514C3.81894 22.4491 7.9526 25.1958 12.739 25.1958Z" fill="#34A853"/>
<path d="M5.77702 15.3781C5.51867 14.6167 5.36916 13.8008 5.36916 12.9578C5.36916 12.1147 5.51867 11.2989 5.76343 10.5374L5.75658 10.3752L1.9317 7.40479L1.80655 7.46431C0.97714 9.12323 0.501221 10.9861 0.501221 12.9578C0.501221 14.9294 0.97714 16.7922 1.80655 18.4511L5.77702 15.3781Z" fill="#FBBC05"/>
<path d="M12.739 5.45213C15.0369 5.45213 16.587 6.44475 17.4709 7.27426L20.9247 3.90204C18.8035 1.9304 16.0431 0.720215 12.739 0.720215C7.9526 0.720215 3.81894 3.4669 1.80652 7.46455L5.76339 10.5376C6.7561 7.58698 9.50279 5.45213 12.739 5.45213Z" fill="#EB4335"/>
</g>
<defs>
<clipPath id="clip0_9_1123">
<rect width="24" height="24.56" fill="white" transform="translate(0.5 0.720215)"/>
</clipPath>
</defs>
</svg>
