<svg width="24" height="24" viewBox="0 0 24 24" fill="none" xmlns="http://www.w3.org/2000/svg">
<g clip-path="url(#clip0_14_955)">
<path d="M0.666626 11.5C0.666626 5.14873 5.81535 0 12.1666 0V0C18.5179 0 23.6666 5.14873 23.6666 11.5V12.5C23.6666 18.8513 18.5179 24 12.1666 24V24C5.81535 24 0.666626 18.8513 0.666626 12.5V11.5Z" fill="white"/>
<path fill-rule="evenodd" clip-rule="evenodd" d="M0.666626 0H23.6666V12.8H0.666626V0Z" fill="#F93939"/>
</g>
<defs>
<clipPath id="clip0_14_955">
<path d="M0.666626 11.5C0.666626 5.14873 5.81535 0 12.1666 0V0C18.5179 0 23.6666 5.14873 23.6666 11.5V12.5C23.6666 18.8513 18.5179 24 12.1666 24V24C5.81535 24 0.666626 18.8513 0.666626 12.5V11.5Z" fill="white"/>
</clipPath>
</defs>
</svg>
