<svg width="25" height="24" viewBox="0 0 25 24" fill="none" xmlns="http://www.w3.org/2000/svg">
<path d="M5.16663 5.25V18.75C5.16663 18.9489 5.08761 19.1397 4.94696 19.2803C4.8063 19.421 4.61554 19.5 4.41663 19.5C4.21771 19.5 4.02695 19.421 3.8863 19.2803C3.74564 19.1397 3.66663 18.9489 3.66663 18.75V5.25C3.66663 5.05109 3.74564 4.86032 3.8863 4.71967C4.02695 4.57902 4.21771 4.5 4.41663 4.5C4.61554 4.5 4.8063 4.57902 4.94696 4.71967C5.08761 4.86032 5.16663 5.05109 5.16663 5.25ZM13.0416 10.3594L11.1666 10.9688V9C11.1666 8.80109 11.0876 8.61032 10.947 8.46967C10.8063 8.32902 10.6155 8.25 10.4166 8.25C10.2177 8.25 10.0269 8.32902 9.8863 8.46967C9.74564 8.61032 9.66663 8.80109 9.66663 9V10.9688L7.79163 10.3594C7.60241 10.2972 7.39625 10.3128 7.2185 10.4026C7.04075 10.4924 6.90597 10.6492 6.84381 10.8384C6.78165 11.0277 6.7972 11.2338 6.88705 11.4116C6.97689 11.5893 7.13366 11.7241 7.32288 11.7863L9.19788 12.3947L8.041 13.9884C7.97986 14.0679 7.93527 14.1588 7.90986 14.2557C7.88444 14.3527 7.87873 14.4538 7.89304 14.553C7.90736 14.6522 7.94142 14.7475 7.9932 14.8334C8.04499 14.9192 8.11346 14.9938 8.19456 15.0527C8.27566 15.1116 8.36775 15.1536 8.46538 15.1764C8.56301 15.1991 8.66421 15.202 8.76298 15.1849C8.86176 15.1679 8.95612 15.1312 9.04048 15.077C9.12483 15.0229 9.19748 14.9524 9.25413 14.8697L10.411 13.2759L11.5679 14.8697C11.6245 14.9524 11.6972 15.0229 11.7815 15.077C11.8659 15.1312 11.9602 15.1679 12.059 15.1849C12.1578 15.202 12.259 15.1991 12.3566 15.1764C12.4543 15.1536 12.5463 15.1116 12.6274 15.0527C12.7085 14.9938 12.777 14.9192 12.8288 14.8334C12.8806 14.7475 12.9146 14.6522 12.929 14.553C12.9433 14.4538 12.9376 14.3527 12.9121 14.2557C12.8867 14.1588 12.8421 14.0679 12.781 13.9884L11.6241 12.3947L13.4991 11.7863C13.68 11.719 13.828 11.5846 13.9123 11.411C13.9966 11.2375 14.0108 11.0381 13.9518 10.8543C13.8929 10.6706 13.7655 10.5166 13.5959 10.4244C13.4264 10.3322 13.2279 10.3089 13.0416 10.3594ZM22.9791 10.8412C22.9177 10.6538 22.7848 10.498 22.6093 10.4078C22.4338 10.3176 22.2299 10.3002 22.0416 10.3594L20.1666 10.9688V9C20.1666 8.80109 20.0876 8.61032 19.947 8.46967C19.8063 8.32902 19.6155 8.25 19.4166 8.25C19.2177 8.25 19.0269 8.32902 18.8863 8.46967C18.7456 8.61032 18.6666 8.80109 18.6666 9V10.9688L16.7916 10.3603C16.6979 10.3298 16.5992 10.3181 16.5009 10.3258C16.4027 10.3335 16.307 10.3605 16.2192 10.4052C16.1314 10.4499 16.0533 10.5115 15.9893 10.5864C15.9253 10.6613 15.8766 10.748 15.8462 10.8417C15.8157 10.9354 15.804 11.0342 15.8117 11.1324C15.8194 11.2306 15.8463 11.3264 15.891 11.4142C15.9358 11.502 15.9973 11.5801 16.0722 11.6441C16.1471 11.7081 16.2339 11.7567 16.3276 11.7872L18.2026 12.3956L17.0457 13.9894C16.9846 14.0688 16.94 14.1597 16.9145 14.2567C16.8891 14.3536 16.8834 14.4547 16.8977 14.5539C16.912 14.6531 16.9461 14.7485 16.9979 14.8343C17.0497 14.9201 17.1181 14.9947 17.1992 15.0536C17.2803 15.1125 17.3724 15.1546 17.4701 15.1773C17.5677 15.2 17.6689 15.2029 17.7677 15.1859C17.8664 15.1688 17.9608 15.1321 18.0452 15.078C18.1295 15.0238 18.2022 14.9533 18.2588 14.8706L19.4157 13.2769L20.5726 14.8706C20.6292 14.9533 20.7019 15.0238 20.7862 15.078C20.8706 15.1321 20.9649 15.1688 21.0637 15.1859C21.1625 15.2029 21.2637 15.2 21.3613 15.1773C21.4589 15.1546 21.551 15.1125 21.6321 15.0536C21.7132 14.9947 21.7817 14.9201 21.8335 14.8343C21.8853 14.7485 21.9193 14.6531 21.9336 14.5539C21.948 14.4547 21.9422 14.3536 21.9168 14.2567C21.8914 14.1597 21.8468 14.0688 21.7857 13.9894L20.6288 12.3956L22.5038 11.7872C22.6921 11.7245 22.8478 11.5897 22.9369 11.4124C23.0259 11.2351 23.0411 11.0297 22.9791 10.8412Z" fill="#343330"/>
</svg>
