<svg width="24" height="25" viewBox="0 0 24 25" fill="none" xmlns="http://www.w3.org/2000/svg">
<path d="M21.1744 10.1394C20.8209 9.77 20.4553 9.38937 20.3175 9.05469C20.19 8.74813 20.1825 8.24 20.175 7.74781C20.1609 6.83281 20.1459 5.79594 19.425 5.075C18.7041 4.35406 17.6672 4.33906 16.7522 4.325C16.26 4.3175 15.7519 4.31 15.4453 4.1825C15.1116 4.04469 14.73 3.67906 14.3606 3.32562C13.7137 2.70406 12.9787 2 12 2C11.0213 2 10.2872 2.70406 9.63937 3.32562C9.27 3.67906 8.88937 4.04469 8.55469 4.1825C8.25 4.31 7.74 4.3175 7.24781 4.325C6.33281 4.33906 5.29594 4.35406 4.575 5.075C3.85406 5.79594 3.84375 6.83281 3.825 7.74781C3.8175 8.24 3.81 8.74813 3.6825 9.05469C3.54469 9.38844 3.17906 9.77 2.82562 10.1394C2.20406 10.7862 1.5 11.5213 1.5 12.5C1.5 13.4787 2.20406 14.2128 2.82562 14.8606C3.17906 15.23 3.54469 15.6106 3.6825 15.9453C3.81 16.2519 3.8175 16.76 3.825 17.2522C3.83906 18.1672 3.85406 19.2041 4.575 19.925C5.29594 20.6459 6.33281 20.6609 7.24781 20.675C7.74 20.6825 8.24813 20.69 8.55469 20.8175C8.88844 20.9553 9.27 21.3209 9.63937 21.6744C10.2862 22.2959 11.0213 23 12 23C12.9787 23 13.7128 22.2959 14.3606 21.6744C14.73 21.3209 15.1106 20.9553 15.4453 20.8175C15.7519 20.69 16.26 20.6825 16.7522 20.675C17.6672 20.6609 18.7041 20.6459 19.425 19.925C20.1459 19.2041 20.1609 18.1672 20.175 17.2522C20.1825 16.76 20.19 16.2519 20.3175 15.9453C20.4553 15.6116 20.8209 15.23 21.1744 14.8606C21.7959 14.2137 22.5 13.4787 22.5 12.5C22.5 11.5213 21.7959 10.7872 21.1744 10.1394ZM20.0916 13.8228C19.6425 14.2916 19.1775 14.7763 18.9309 15.3716C18.6947 15.9434 18.6844 16.5969 18.675 17.2297C18.6656 17.8859 18.6553 18.5731 18.3638 18.8638C18.0722 19.1544 17.3897 19.1656 16.7297 19.175C16.0969 19.1844 15.4434 19.1947 14.8716 19.4309C14.2763 19.6775 13.7916 20.1425 13.3228 20.5916C12.8541 21.0406 12.375 21.5 12 21.5C11.625 21.5 11.1422 21.0387 10.6772 20.5916C10.2122 20.1444 9.72375 19.6775 9.12844 19.4309C8.55656 19.1947 7.90313 19.1844 7.27031 19.175C6.61406 19.1656 5.92687 19.1553 5.63625 18.8638C5.34562 18.5722 5.33437 17.8897 5.325 17.2297C5.31562 16.5969 5.30531 15.9434 5.06906 15.3716C4.8225 14.7763 4.3575 14.2916 3.90844 13.8228C3.45937 13.3541 3 12.875 3 12.5C3 12.125 3.46125 11.6422 3.90844 11.1772C4.35562 10.7122 4.8225 10.2238 5.06906 9.62844C5.30531 9.05656 5.31562 8.40313 5.325 7.77031C5.33437 7.11406 5.34469 6.42687 5.63625 6.13625C5.92781 5.84562 6.61031 5.83437 7.27031 5.825C7.90313 5.81562 8.55656 5.80531 9.12844 5.56906C9.72375 5.3225 10.2084 4.8575 10.6772 4.40844C11.1459 3.95937 11.625 3.5 12 3.5C12.375 3.5 12.8578 3.96125 13.3228 4.40844C13.7878 4.85562 14.2763 5.3225 14.8716 5.56906C15.4434 5.80531 16.0969 5.81562 16.7297 5.825C17.3859 5.83437 18.0731 5.84469 18.3638 6.13625C18.6544 6.42781 18.6656 7.11031 18.675 7.77031C18.6844 8.40313 18.6947 9.05656 18.9309 9.62844C19.1775 10.2238 19.6425 10.7084 20.0916 11.1772C20.5406 11.6459 21 12.125 21 12.5C21 12.875 20.5387 13.3578 20.0916 13.8228ZM11.25 13.25V8C11.25 7.80109 11.329 7.61032 11.4697 7.46967C11.6103 7.32902 11.8011 7.25 12 7.25C12.1989 7.25 12.3897 7.32902 12.5303 7.46967C12.671 7.61032 12.75 7.80109 12.75 8V13.25C12.75 13.4489 12.671 13.6397 12.5303 13.7803C12.3897 13.921 12.1989 14 12 14C11.8011 14 11.6103 13.921 11.4697 13.7803C11.329 13.6397 11.25 13.4489 11.25 13.25ZM13.125 16.625C13.125 16.8475 13.059 17.065 12.9354 17.25C12.8118 17.435 12.6361 17.5792 12.4305 17.6644C12.225 17.7495 11.9988 17.7718 11.7805 17.7284C11.5623 17.685 11.3618 17.5778 11.2045 17.4205C11.0472 17.2632 10.94 17.0627 10.8966 16.8445C10.8532 16.6262 10.8755 16.4 10.9606 16.1945C11.0458 15.9889 11.19 15.8132 11.375 15.6896C11.56 15.566 11.7775 15.5 12 15.5C12.2984 15.5 12.5845 15.6185 12.7955 15.8295C13.0065 16.0405 13.125 16.3266 13.125 16.625Z" fill="#DC3444"/>
</svg>
