<svg width="20" height="20" viewBox="0 0 20 20" fill="none" xmlns="http://www.w3.org/2000/svg">
<path d="M16.2882 14.9615C16.4644 15.1376 16.5633 15.3765 16.5633 15.6256C16.5633 15.8746 16.4644 16.1135 16.2882 16.2896C16.1121 16.4657 15.8733 16.5647 15.6242 16.5647C15.3751 16.5647 15.1362 16.4657 14.9601 16.2896L9.99997 11.3279L5.03825 16.2881C4.86213 16.4642 4.62326 16.5631 4.37418 16.5631C4.12511 16.5631 3.88624 16.4642 3.71012 16.2881C3.534 16.1119 3.43506 15.8731 3.43506 15.624C3.43506 15.3749 3.534 15.136 3.71012 14.9599L8.67184 9.99977L3.71168 5.03805C3.53556 4.86193 3.43662 4.62306 3.43662 4.37399C3.43662 4.12492 3.53556 3.88605 3.71168 3.70993C3.8878 3.53381 4.12668 3.43486 4.37575 3.43486C4.62482 3.43486 4.86369 3.53381 5.03981 3.70993L9.99997 8.67165L14.9617 3.70915C15.1378 3.53303 15.3767 3.43408 15.6257 3.43408C15.8748 3.43408 16.1137 3.53303 16.2898 3.70915C16.4659 3.88527 16.5649 4.12414 16.5649 4.37321C16.5649 4.62228 16.4659 4.86115 16.2898 5.03727L11.3281 9.99977L16.2882 14.9615Z" fill="#111827"/>
</svg>
