<svg width="25" height="24" viewBox="0 0 25 24" fill="none" xmlns="http://www.w3.org/2000/svg">
<g clip-path="url(#clip0_605_4964)">
<g clip-path="url(#clip1_605_4964)">
<path d="M4.97051 0.121397C5.79221 -0.00818096 6.62787 -0.00895688 7.4581 0.00966509L7.38671 0.0756179C6.30043 0.787132 5.39959 1.76401 4.7486 2.88521C3.44351 5.12993 2.96787 7.78434 3.07573 10.3573C3.1828 12.4522 3.6856 14.5589 4.7517 16.3799C4.93016 16.7058 5.22734 16.9937 5.232 17.3894C5.26536 18.2382 4.84559 19.0382 4.27762 19.645C4.31486 19.6838 4.35133 19.7226 4.38858 19.7614C4.92008 20.3418 5.48727 20.8872 6.02731 21.4599C6.79469 22.3273 7.66915 23.0955 8.42101 23.9785C7.17023 23.9971 5.90471 24.0553 4.66868 23.8217C3.11297 23.5199 1.73184 22.4414 1.07231 20.9997C0.672716 20.1664 0.553225 19.2345 0.522188 18.3213C0.521412 14.1049 0.521412 9.8894 0.522188 5.67385C0.539259 4.26479 0.912474 2.79055 1.90409 1.74539C2.68932 0.860069 3.80121 0.284339 4.97051 0.121397Z" fill="#0068FF"/>
<path d="M16.3625 7.86328C16.6954 7.86328 17.0283 7.86328 17.3619 7.86328C17.3565 9.81316 17.3565 11.7638 17.3619 13.7137C17.036 13.6679 16.4936 13.8766 16.3711 13.4429C16.3509 11.5838 16.3695 9.72315 16.3625 7.86328Z" fill="#0068FF"/>
<path d="M6.17936 7.93251C7.72809 7.93096 9.27527 7.92087 10.8232 7.93173C10.8124 8.23511 10.7953 8.56565 10.592 8.81084C9.53365 10.1283 8.4978 11.4629 7.44023 12.7804C8.56453 12.7874 9.68883 12.7828 10.8131 12.7828C10.7922 13.0458 10.8845 13.3523 10.7138 13.5804C10.6067 13.7278 10.4128 13.7146 10.2521 13.7162C8.84541 13.7084 7.43867 13.7232 6.03271 13.7084C6.03659 13.4112 6.0397 13.0823 6.24764 12.8456C7.29358 11.5335 8.35193 10.2308 9.3932 8.91559C8.32322 8.91714 7.25245 8.90861 6.18247 8.92025C6.17548 8.59126 6.17781 8.2615 6.17936 7.93251Z" fill="#0068FF"/>
<path d="M19.8394 9.22359C20.9536 8.97452 22.1625 9.70621 22.4675 10.8033C22.85 11.9447 22.1517 13.3018 20.9979 13.6494C20.0179 13.9947 18.8447 13.5439 18.3365 12.6407C17.9377 11.9734 17.9136 11.0997 18.276 10.4131C18.5832 9.80707 19.1768 9.36403 19.8394 9.22359ZM19.8208 10.2121C19.1411 10.4519 18.7749 11.279 19.0402 11.947C19.2598 12.5786 19.9993 12.9651 20.6417 12.7711C21.375 12.5957 21.818 11.7368 21.5581 11.033C21.3408 10.3362 20.499 9.93432 19.8208 10.2121Z" fill="#0068FF"/>
<path d="M11.5852 10.0363C12.1213 9.37208 13.0602 9.04464 13.8873 9.2813C14.1604 9.35035 14.4079 9.48691 14.6469 9.63201C14.6446 9.55907 14.6392 9.41398 14.6368 9.34104C14.9495 9.33949 15.2615 9.34027 15.5741 9.33872C15.5726 10.7974 15.571 12.2562 15.5749 13.7157C15.3453 13.7094 15.1117 13.7366 14.8859 13.69C14.7276 13.6256 14.6787 13.4526 14.6159 13.3114C13.7531 13.9818 12.3976 13.8297 11.6806 13.0135C10.9163 12.2228 10.8768 10.8758 11.5852 10.0363ZM12.8484 10.2318C12.1299 10.4847 11.7815 11.4104 12.1454 12.0777C12.4557 12.7279 13.3294 13.001 13.954 12.6426C14.5336 12.3384 14.8013 11.5834 14.5523 10.9798C14.311 10.3234 13.497 9.95557 12.8484 10.2318Z" fill="#0068FF"/>
<path d="M7.38666 0.0754911C7.56047 0.0258325 7.74203 0.0103142 7.92204 0.00488281C11.0249 0.0165215 14.1278 0.00333098 17.2307 0.00876239C18.0602 0.0188493 18.8943 -0.0370166 19.7175 0.0894576C20.8573 0.17636 21.9545 0.65898 22.8026 1.4217C23.8671 2.43893 24.4351 3.90386 24.4529 5.36491C24.4537 9.47804 24.4514 13.5943 24.4553 17.7058C24.4444 17.7299 24.4234 17.7796 24.4126 17.8044C23.3069 19.0412 21.8202 19.8784 20.2661 20.42C18.1719 21.1338 15.9287 21.3635 13.7274 21.1959C11.5262 21.0066 9.30783 20.4316 7.44098 19.215C6.4866 19.6394 5.43368 19.8474 4.38853 19.7612C4.35128 19.7224 4.31481 19.6837 4.27757 19.6449C4.84554 19.0381 5.26531 18.2381 5.23195 17.3893C5.22729 16.9936 4.93011 16.7057 4.75165 16.3798C3.68555 14.5587 3.18275 12.4521 3.07568 10.3571C2.96782 7.78421 3.44346 5.12981 4.74855 2.88508C5.39954 1.76388 6.30038 0.787006 7.38666 0.0754911ZM16.3625 7.86336C16.3694 9.72322 16.3508 11.5839 16.371 13.443C16.4936 13.8767 17.0359 13.668 17.3618 13.7138C17.3564 11.7639 17.3564 9.81323 17.3618 7.86336C17.0282 7.86336 16.6953 7.86336 16.3625 7.86336ZM6.17934 7.93241C6.17779 8.2614 6.17546 8.59116 6.18244 8.92015C7.25243 8.90851 8.32319 8.91705 9.39318 8.9155C8.3519 10.2307 7.29355 11.5334 6.24762 12.8455C6.03967 13.0822 6.03657 13.4112 6.03269 13.7083C7.43865 13.7231 8.84538 13.7083 10.2521 13.7161C10.4127 13.7145 10.6067 13.7277 10.7138 13.5803C10.8845 13.3522 10.7922 13.0457 10.8131 12.7827C9.6888 12.7827 8.5645 12.7873 7.4402 12.7803C8.49777 11.4628 9.53362 10.1283 10.592 8.81075C10.7953 8.56556 10.8123 8.23502 10.8232 7.93164C9.27524 7.92077 7.72807 7.93086 6.17934 7.93241ZM19.8393 9.22354C19.1767 9.36398 18.5831 9.80702 18.2759 10.413C17.9135 11.0997 17.9376 11.9734 18.3364 12.6407C18.8446 13.5438 20.0178 13.9946 20.9978 13.6494C22.1516 13.3017 22.8499 11.9447 22.4674 10.8033C22.1624 9.70615 20.9535 8.97447 19.8393 9.22354ZM11.5851 10.0359C10.8767 10.8755 10.9163 12.2224 11.6806 13.0131C12.3975 13.8294 13.753 13.9815 14.6159 13.3111C14.6787 13.4523 14.7276 13.6253 14.8859 13.6897C15.1117 13.7363 15.3452 13.7091 15.5749 13.7153C15.571 12.2558 15.5726 10.7971 15.5741 9.33837C15.2614 9.33992 14.9495 9.33915 14.6368 9.3407C14.6391 9.41363 14.6446 9.55873 14.6469 9.63167C14.4079 9.48657 14.1604 9.35001 13.8873 9.28095C13.0602 9.0443 12.1213 9.37173 11.5851 10.0359Z" fill="white"/>
<path d="M12.8484 10.2314C13.497 9.95516 14.311 10.3229 14.5523 10.9794C14.8013 11.583 14.5336 12.338 13.954 12.6422C13.3294 13.0006 12.4557 12.7275 12.1454 12.0773C11.7815 11.41 12.1299 10.4843 12.8484 10.2314Z" fill="white"/>
<path d="M19.8208 10.2123C20.4989 9.9345 21.3408 10.3364 21.558 11.0332C21.818 11.737 21.3749 12.5959 20.6417 12.7713C19.9992 12.9652 19.2598 12.5788 19.0402 11.9472C18.7748 11.2792 19.1411 10.452 19.8208 10.2123Z" fill="white"/>
<path d="M24.4126 17.8045L24.4739 17.7378C24.5057 18.9505 24.3746 20.2161 23.7795 21.2954C23.0873 22.5617 21.8319 23.5021 20.4197 23.8031C19.6275 23.9668 18.8151 24.0033 18.0082 23.9932C15.526 23.994 13.0439 23.9932 10.5617 23.994C9.84789 23.9824 9.1325 24.0157 8.42098 23.9785C7.66912 23.0955 6.79466 22.3273 6.02728 21.4599C5.48725 20.8872 4.92005 20.3418 4.38855 19.7614C5.43371 19.8475 6.48663 19.6396 7.441 19.2151C9.30785 20.4318 11.5262 21.0067 13.7275 21.196C15.9287 21.3636 18.1719 21.134 20.2661 20.4201C21.8203 19.8785 23.3069 19.0413 24.4126 17.8045Z" fill="#005BE0"/>
</g>
</g>
<path d="M4.5 0.5H20.5C22.433 0.5 24 2.067 24 4V20C24 21.933 22.433 23.5 20.5 23.5H4.5C2.567 23.5 1 21.933 1 20V4C1 2.067 2.567 0.5 4.5 0.5Z" stroke="#E5E7EB"/>
<defs>
<clipPath id="clip0_605_4964">
<path d="M0.5 4C0.5 1.79086 2.29086 0 4.5 0H20.5C22.7091 0 24.5 1.79086 24.5 4V20C24.5 22.2091 22.7091 24 20.5 24H4.5C2.29086 24 0.5 22.2091 0.5 20V4Z" fill="white"/>
</clipPath>
<clipPath id="clip1_605_4964">
<rect x="0.5" width="24" height="24" rx="6" fill="white"/>
</clipPath>
</defs>
</svg>
