<svg width="56" height="56" viewBox="0 0 56 56" fill="none" xmlns="http://www.w3.org/2000/svg">
<g clip-path="url(#clip0_16_1515)">
<g clip-path="url(#clip1_16_1515)">
<path d="M10.4313 0.283911C12.3486 -0.0184379 14.2985 -0.0202483 16.2357 0.0232029L16.0691 0.177093C13.5345 1.83729 11.4325 4.11668 9.91352 6.7328C6.86831 11.9705 5.7585 18.1641 6.01015 24.1676C6.26 29.0559 7.43318 33.9713 9.92076 38.2205C10.3372 38.9809 11.0306 39.6526 11.0414 40.5759C11.1193 42.5566 10.1398 44.4232 8.81457 45.839C8.90147 45.9295 8.98656 46.02 9.07347 46.1105C10.3136 47.4648 11.6371 48.7375 12.8972 50.0736C14.6877 52.0977 16.7281 53.8901 18.4825 55.9504C15.564 55.9939 12.6111 56.1297 9.72705 55.5847C6.09705 54.8804 2.87442 52.3639 1.33552 49C0.403126 47.0556 0.124314 44.8812 0.051895 42.7503C0.0500845 32.9122 0.0500845 23.0759 0.051895 13.2396C0.0917253 9.95182 0.962561 6.51193 3.27634 4.07322C5.10854 2.00748 7.70294 0.664109 10.4313 0.283911Z" fill="#0068FF"/>
<path d="M37.0125 18.3486C37.7892 18.3486 38.5659 18.3486 39.3444 18.3486C39.3318 22.8983 39.3318 27.4499 39.3444 31.9996C38.584 31.8928 37.3185 32.3798 37.0325 31.3677C36.9854 27.0298 37.0288 22.6883 37.0125 18.3486Z" fill="#0068FF"/>
<path d="M13.2521 18.51C16.8658 18.5064 20.4759 18.4828 24.0878 18.5082C24.0624 19.2161 24.0226 19.9873 23.5482 20.5594C21.0787 23.6336 18.6618 26.7476 16.1941 29.8218C18.8175 29.8381 21.4408 29.8272 24.0642 29.8272C24.0153 30.441 24.2308 31.1561 23.8325 31.6884C23.5826 32.0324 23.13 32.0016 22.7552 32.0052C19.4729 31.9871 16.1905 32.0215 12.9099 31.9871C12.919 31.2937 12.9262 30.5261 13.4114 29.9739C15.8519 26.9124 18.3214 23.8726 20.7511 20.8039C18.2544 20.8075 15.756 20.7876 13.2593 20.8147C13.243 20.0471 13.2485 19.2776 13.2521 18.51Z" fill="#0068FF"/>
<path d="M45.1255 21.5225C47.7253 20.9414 50.546 22.6486 51.2575 25.2086C52.1501 27.8718 50.5207 31.0383 47.8285 31.8494C45.5419 32.6551 42.8044 31.6032 41.6186 29.4958C40.688 27.9388 40.6319 25.9002 41.4774 24.298C42.1943 22.884 43.5793 21.8502 45.1255 21.5225ZM45.082 23.8291C43.496 24.3885 42.6415 26.3184 43.2607 27.8773C43.773 29.351 45.4984 30.2526 46.9975 29.8C48.7084 29.3908 49.7421 27.3866 49.1356 25.7445C48.6287 24.1187 46.6644 23.1809 45.082 23.8291Z" fill="#0068FF"/>
<path d="M25.8655 23.4181C27.1165 21.8683 29.3072 21.1043 31.2372 21.6565C31.8745 21.8177 32.452 22.1363 33.0096 22.4749C33.0042 22.3047 32.9915 21.9661 32.9861 21.7959C33.7157 21.7923 34.4435 21.7941 35.1731 21.7905C35.1695 25.1942 35.1659 28.5979 35.1749 32.0034C34.639 31.9889 34.0941 32.0522 33.5673 31.9436C33.1979 31.7933 33.0839 31.3896 32.9372 31.0601C30.924 32.6243 27.7611 32.2695 26.0882 30.3649C24.3049 28.52 24.2126 25.377 25.8655 23.4181ZM28.813 23.8743C27.1365 24.4646 26.3236 26.6245 27.1727 28.1815C27.8969 29.6986 29.9354 30.3359 31.3929 29.4995C32.7453 28.7898 33.3699 27.0282 32.7887 25.6196C32.2257 24.088 30.3265 23.2298 28.813 23.8743Z" fill="#0068FF"/>
<path d="M16.069 0.17696C16.4745 0.0610897 16.8982 0.0248803 17.3182 0.012207C24.5583 0.0393641 31.7984 0.00858609 39.0384 0.0212594C40.9738 0.0447955 42.9201 -0.0855583 44.841 0.209548C47.5006 0.412321 50.0606 1.53843 52.0394 3.31812C54.5234 5.69165 55.8486 9.10982 55.8903 12.5189C55.8921 22.1162 55.8867 31.7208 55.8957 41.3145C55.8704 41.3706 55.8215 41.4864 55.7961 41.5444C53.2162 44.4303 49.7474 46.3838 46.121 47.6475C41.2345 49.3131 36.0005 49.849 30.8642 49.4579C25.7279 49.0162 20.5517 47.6746 16.1957 44.8358C13.9689 45.8261 11.5121 46.3113 9.07335 46.1104C8.98644 46.0199 8.90135 45.9293 8.81445 45.8388C10.1397 44.423 11.1192 42.5564 11.0413 40.5758C11.0305 39.6524 10.3371 38.9808 9.92065 38.2204C7.43306 33.9712 6.25988 29.0558 6.01003 24.1675C5.75838 18.164 6.8682 11.9704 9.91341 6.73267C11.4324 4.11654 13.5343 1.83716 16.069 0.17696ZM37.0125 18.3486C37.0288 22.6883 36.9854 27.0298 37.0324 31.3677C37.3185 32.3798 38.584 31.8928 39.3444 31.9996C39.3317 27.4499 39.3317 22.8984 39.3444 18.3486C38.5659 18.3486 37.7892 18.3486 37.0125 18.3486ZM13.2519 18.5098C13.2483 19.2774 13.2429 20.0469 13.2592 20.8145C15.7558 20.7873 18.2542 20.8073 20.7509 20.8036C18.3212 23.8724 15.8517 26.9122 13.4112 29.9737C12.926 30.5259 12.9188 31.2935 12.9097 31.9869C16.1903 32.0213 19.4727 31.9869 22.7551 32.005C23.1298 32.0014 23.5825 32.0322 23.8323 31.6882C24.2306 31.1559 24.0152 30.4408 24.064 29.827C21.4407 29.827 18.8173 29.8379 16.1939 29.8216C18.6616 26.7474 21.0786 23.6334 23.548 20.5592C24.0224 19.9871 24.0622 19.2159 24.0876 18.508C20.4757 18.4826 16.8656 18.5062 13.2519 18.5098ZM45.1252 21.5224C43.5791 21.8501 42.1941 22.8839 41.4771 24.2978C40.6316 25.9001 40.6878 27.9387 41.6184 29.4957C42.8042 31.6031 45.5416 32.655 47.8283 31.8493C50.5204 31.0382 52.1498 27.8717 51.2573 25.2085C50.5458 22.6485 47.7251 20.9412 45.1252 21.5224ZM25.8655 23.418C24.2125 25.3769 24.3048 28.5199 26.0881 30.3647C27.761 32.2693 30.9239 32.6242 32.9371 31.06C33.0838 31.3895 33.1979 31.7932 33.5672 31.9435C34.094 32.0521 34.639 31.9887 35.1749 32.0032C35.1658 28.5977 35.1695 25.194 35.1731 21.7903C34.4435 21.794 33.7156 21.7922 32.986 21.7958C32.9915 21.966 33.0041 22.3045 33.0096 22.4747C32.4519 22.1361 31.8744 21.8175 31.2371 21.6564C29.3072 21.1042 27.1165 21.8682 25.8655 23.418Z" fill="white"/>
<path d="M28.8129 23.8741C30.3264 23.2295 32.2256 24.0877 32.7887 25.6193C33.3698 27.0279 32.7452 28.7895 31.3928 29.4992C29.9354 30.3356 27.8968 29.6983 27.1726 28.1812C26.3235 26.6242 27.1364 24.4643 28.8129 23.8741Z" fill="white"/>
<path d="M45.0818 23.8291C46.6641 23.181 48.6285 24.1188 49.1354 25.7446C49.7419 27.3867 48.7082 29.3909 46.9973 29.8001C45.4982 30.2527 43.7728 29.3511 43.2605 27.8774C42.6413 26.3185 43.4958 24.3886 45.0818 23.8291Z" fill="white"/>
<path d="M55.7963 41.5444L55.9393 41.3887C56.0135 44.2184 55.7076 47.1713 54.3189 49.6897C52.704 52.6444 49.7747 54.8387 46.4796 55.5411C44.6311 55.9231 42.7355 56.0082 40.8527 55.9847C35.061 55.9865 29.2693 55.9847 23.4776 55.9865C21.812 55.9593 20.1427 56.0372 18.4825 55.9503C16.7282 53.89 14.6878 52.0976 12.8972 50.0735C11.6371 48.7374 10.3137 47.4646 9.07349 46.1104C11.5122 46.3113 13.969 45.8261 16.1959 44.8358C20.5519 47.6746 25.728 49.0162 30.8643 49.4579C36.0006 49.849 41.2347 49.3131 46.1211 47.6475C49.7475 46.3838 53.2164 44.4303 55.7963 41.5444Z" fill="#005BE0"/>
</g>
</g>
<path d="M0.5 12C0.5 5.64873 5.64873 0.5 12 0.5H44C50.3513 0.5 55.5 5.64873 55.5 12V44C55.5 50.3513 50.3513 55.5 44 55.5H12C5.64873 55.5 0.5 50.3513 0.5 44V12Z" stroke="#E5E7EB"/>
<defs>
<clipPath id="clip0_16_1515">
<path d="M0 12C0 5.37258 5.37258 0 12 0H44C50.6274 0 56 5.37258 56 12V44C56 50.6274 50.6274 56 44 56H12C5.37258 56 0 50.6274 0 44V12Z" fill="white"/>
</clipPath>
<clipPath id="clip1_16_1515">
<rect width="56" height="56" rx="6" fill="white"/>
</clipPath>
</defs>
</svg>
